/* XPM */
static const char *_dmdb[] = {
/* columns rows colors chars-per-pixel */
"64 64 255 2 ",
"   c black",
".  c #060000",
"X  c #090000",
"o  c #0E0000",
"O  c #100000",
"+  c #1D0000",
"@  c #200000",
"#  c #290000",
"$  c #300000",
"%  c #370000",
"&  c #390000",
"*  c #410000",
"=  c #460000",
"-  c #4A0000",
";  c #4C0000",
":  c #500000",
">  c #550000",
",  c #5E0000",
"<  c #600000",
"1  c #650000",
"2  c #690000",
"3  c #6D0000",
"4  c #700000",
"5  c #750000",
"6  c #7A0000",
"7  c #7C0000",
"8  c #6E3636",
"9  c #703838",
"0  c #65543D",
"q  c #784040",
"w  c #764E4E",
"e  c #7E4E4E",
"r  c #665542",
"t  c #645446",
"y  c #685640",
"u  c #6A5944",
"i  c #6C5C49",
"p  c #6B5B4E",
"a  c #6B5C4F",
"s  c #645454",
"d  c #605F5F",
"f  c #6A5A5A",
"g  c #745454",
"h  c #7C5252",
"j  c #735858",
"k  c #715F5F",
"l  c #745E5E",
"z  c #7E5B5B",
"x  c #785C5C",
"c  c #6F604F",
"v  c #71614E",
"b  c #736454",
"n  c #766856",
"m  c #76685C",
"M  c #7A6D5C",
"N  c #575861",
"B  c #606060",
"V  c #666060",
"C  c #6A6060",
"Z  c #6C6060",
"A  c #736060",
"S  c #796D62",
"D  c #7E7262",
"F  c #7F7364",
"G  c #7F7467",
"H  c #7C7168",
"J  c #7F746E",
"K  c #800000",
"L  c #8F0000",
"P  c #900000",
"I  c #9B0000",
"U  c #9E0000",
"Y  c #A00000",
"T  c #A60000",
"R  c #A90000",
"E  c #B00000",
"W  c #BA1A1A",
"Q  c #873737",
"!  c #933D3D",
"~  c #9C3C3C",
"^  c #BB2525",
"/  c #B12A2A",
"(  c #B92A2A",
")  c #BC2B2B",
"_  c #A63636",
"`  c #AE3131",
"'  c #A53838",
"]  c #B03030",
"[  c #C00000",
"{  c #C80000",
"}  c #CE0000",
"|  c #C70808",
" . c #D60101",
".. c #DA0000",
"X. c #DE0000",
"o. c #D50909",
"O. c #D40D0D",
"+. c #DA0B0B",
"@. c #C91111",
"#. c #CD1D1D",
"$. c #D11010",
"%. c #D91414",
"&. c #D61818",
"*. c #E30000",
"=. c #EA0000",
"-. c #EE0000",
";. c #ED0606",
":. c #E30D0D",
">. c #E70C0C",
",. c #EB0C0C",
"<. c #F50000",
"1. c #F50505",
"2. c #F90000",
"3. c #FE0000",
"4. c #F80606",
"5. c #FE0404",
"6. c #FD0808",
"7. c #FA0B0C",
"8. c #FB0D0D",
"9. c #FE0D0D",
"0. c #E11212",
"q. c #EE1A1A",
"w. c #EC1D1D",
"e. c #F91111",
"r. c #FE1010",
"t. c #F81616",
"y. c #FE1515",
"u. c #FE1818",
"i. c #FE1D1D",
"p. c #C42121",
"a. c #C32424",
"s. c #C32E2E",
"d. c #D4363D",
"f. c #F42020",
"g. c #FE2020",
"h. c #FE2525",
"j. c #F02D2D",
"k. c #FE2E2E",
"l. c #E53139",
"z. c #F33434",
"x. c #FE3030",
"c. c #FE3A3A",
"v. c #FB3F3F",
"b. c #FE3E3E",
"n. c #E63F42",
"m. c #844E4E",
"M. c #884848",
"N. c #8C4848",
"B. c #924242",
"V. c #8F5555",
"C. c #855B5B",
"Z. c #845F5F",
"A. c #955959",
"S. c #A44A4A",
"D. c #B85B5B",
"F. c #976060",
"G. c #817566",
"H. c #817569",
"J. c #80756F",
"K. c #867C6E",
"L. c #827872",
"P. c #857B70",
"I. c #867C70",
"U. c #887D70",
"Y. c #867D78",
"T. c #A06060",
"R. c #E34347",
"E. c #FE4040",
"W. c #FE4545",
"Q. c #FE4848",
"!. c #FE4E4E",
"~. c #FE5656",
"^. c #FE5959",
"/. c #FE5E5E",
"(. c #D55861",
"). c #D45E66",
"_. c #D06060",
"`. c #DD6465",
"'. c #DF6F6F",
"]. c #E06060",
"[. c #F76163",
"{. c #FE6161",
"}. c #FE6666",
"|. c #FE6B6B",
" X c #FE6F6F",
".X c #FE7070",
"XX c #FE7676",
"oX c #FE7A7A",
"OX c #FE7E7E",
"+X c #8B8175",
"@X c #8E8579",
"#X c #89817D",
"$X c #8D8580",
"%X c #8F8785",
"&X c #918982",
"*X c #918984",
"=X c #938C87",
"-X c #968E85",
";X c #928B89",
":X c #928C8A",
">X c #99938A",
",X c #9D978F",
"<X c #878891",
"1X c #909090",
"2X c #999393",
"3X c #999490",
"4X c #9C9795",
"5X c #9E9892",
"6X c #9B9798",
"7X c #9D999B",
"8X c #AD9090",
"9X c #A19B95",
"0X c #B59A9C",
"qX c #A3A0A3",
"wX c #A4A1A4",
"eX c #A8A4A1",
"rX c #A8A6AA",
"tX c #ADABA9",
"yX c #BEA0A8",
"uX c #B5A8B0",
"iX c #B8AEB6",
"pX c #B1B0B3",
"aX c #B2B3BA",
"sX c #B7B7BB",
"dX c #B5B6BE",
"fX c #B7B8BE",
"gX c gray72",
"hX c #DF8F8F",
"jX c #D89797",
"kX c #D699A2",
"lX c #B6B7C0",
"zX c #B6B8C0",
"xX c #B8B9C1",
"cX c #BBBCC3",
"vX c #BBBCC5",
"bX c #BDBEC6",
"nX c #BEBFC8",
"mX c #C1BCC5",
"MX c #BEC0C8",
"NX c #C1C2CB",
"BX c #C2C3CC",
"VX c #C3C5CC",
"CX c #C4C5CE",
"ZX c #C8C9D2",
"AX c #CCCDD6",
"SX c #D7CED2",
"DX c #D1D1D4",
"FX c #D1D2DA",
"GX c #D3D4DA",
"HX c #D6D6DA",
"JX c #D5D3DC",
"KX c #D5D6DF",
"LX c gray85",
"PX c #DDDDDD",
"IX c None",
/* pixels */
"OX3.3.3.3.3.3.3.3.3.3.3.3.3.3.3.3.3.3.c.IXIXIXIXIXIXIXIXIXIXIXIXIXIXOX3.3.3.3.3.3.3.3.3.3.3.3.IXIXIXIXIXIXy.3.3.3.3.3.3.3.3.3. X",
"OX3.3.3.3.3.3.3.3.3.3.3.3.3.3.3.3.3.3.3.g.IXIXIXIXIXIXIXIXIXIXIXIXIXOX3.3.3.3.3.3.3.3.3.3.3.3.IXIXIXIXIXOX3.3.3.3.3.3.3.3.3.3.OX",
"IXE.3.3.K ] K ] K ] K ] K ] K ] K ] E 3.3.6.IXIXIXIXIXIXIXIXIXIXIXIXIXOX5.3.j.K ] K ] K ..3.5.IXIXIXIXIXr.3.w.+ h % N.Y 3.3.OXIX",
"IXOX3.3.B   B   B   B   B   B   B   d 5 3.3.3..XIXIXIXIXIXIXIXIXIXIXIXIXr.3.P B   B   B 1 3.3.IXIXIXIXOX3.3.: B   B   _ 3.3.IXIX",
"IXOX3.3.  B   B   B   B   B   B   B   B = 8.3.3.3.IXIXIXIXIXIXIXIXIXIXIXr.3.(   B   B   C -.3.E.IXIXIXr.3.} d   B   B 4 3.3.IXIX",
"IXOX3.3.B   B   B   B   B   B   B   B   B @ f.3.3.IXIXIXIXIXIXIXIXIXIXIXr.3.P B   B   B   / 3.3.IXIXOX3.3.Q   B   B   ' 3.3.IXIX",
"IXOX3.3.  B   B   B   B   B   B   B   B   B K 3.3.IXIXIXIXIXIXIXIXIXIXIXr.3.(   B   B   B + 2.3.{.IXr.3.w.  B   B   B < 3.3.IXIX",
"IXoX3.2.B   B   B   B   B   B   B   B   B   ] 3.3.IXIXIXIXIXIXIXIXIXIXIXi.3.U B   B   B   B R 3.6. X3.3.: B   B   B   ~ 3.3.IXIX",
"IX X3.1.  B   B   3.3.3.3.3.3.3.3.]   B   B K 3.3.IXIXIXIXIXIXIXIXIXIXIXg.3.a.  B   B   B   V.3.3.5.3.} d   B   B   B < 3.3.IXIX",
"IX X3.-.B   B   ] 3.3.3.3.3.3.3.3.3.B   B   ] 3.3.IXIXIXIXIXIXIXIXIXIXIXg.3.Y B   B   B   B   o.3.3.3.Q   B   B   B   B.3.3.IXIX",
"IX X3.1.  B   B 6 3.3.oXOXOXOXE.3.3.  B   B K 3.3.IXIXIXIXIXIXIXIXIXIXIXg.3.a.  B   B   B   B 1 3.3.w.  B   B   B   B : 3.3.IXIX",
"IX X3.-.B   B   _ 3.3.IXIXIXIXOX3.3.B   B   ] 3.3.IXIXIXIXIXIXIXIXIXIXIXh.3.T B   B   B   B   ] 3.3.{ B   B   B   B   B.3.3.IXIX",
"IX X3.1.  B   B 4 3.3.IXIXIXIXOX3.3.  B   B K 3.3.IXIXIXIXIXIXIXIXIXIXIXx.3.#.  B   B   B   B U 3...q   B   B   B   B * 3.3.IXIX",
"IX|.3.=.B   B   _ 3.3.IXIXIXIXOX3.3.B   B   ] 3.3.IXIXIXIXIXIXIXIXIXIXIXx.3.E B   B   B   B   B $ 9   B   B   B   B   M.3.3.IXIX",
"IX/.3.,.  B   B < 3.3.IXIXIXIXOX3.3.  B   B K 3.3.IXIXIXIXIXIXIXIXIXIXIXx.3.#.  B   B   B   B   B   B   B   B   B   B * 3.3.IXIX",
"IX/.3.X.B   B   ~ 3.3.IXIXIXIXOX3.3.B   B   ] 3.3.IXIXIXIXIXIXIXIXIXIXIXx.3.E B   B   B   B   B   B   B   B   B   B   m.3.3.IXIX",
"IX/.3.,.  B   B < 3.3.IXIXIXIXOX3.3.  B   B K 3.3.IXIXIXIXIXIXIXIXIXIXIXb.3.&.  B   B   B   B   B   B   B   B   B   B $ 3.3.IXIX",
"IX/.3.X.B   B   ! 3.3.IXIXIXIXOX3.3.B   B   ] 3.3.IXIXIXIXIXIXIXIXIXIXIXb.3.[ B   B   B   B   B   B   B   B   B   B   e 3.3.IXIX",
"IX/.3.,.  B   B : 3.3.IXIXIXIXOX3.3.  B   B K 3.3.IXIXIXIXIXIXIXIXIXIXIXb.3.&.  B   B   B   B   B   B   B   B   B   B # 3.3.IXIX",
"IX/.3.X.B   B   B.3.3.IXIXIXIXOX3.3.B   B   ] 3.3.IXIXIXIXIXIXIXIXIXIXIXb.3.[ B   B   B   B   B   B   B   B   B   B   g 3.3.IXIX",
"IX!.3.0.  B   B ; 3.3.IXIXIXIXOX3.3.  B   B K 3.3.IXIXIXIXIXIXIXIXIXIXIXW.3.%.  B   B   B   B   B   B   B   B   B   B @ 3.3.IXIX",
"IX!.3.} B   B   M.3.3.IXIXIXIXOX3.3.B   B   ] 3.3.IXIXIXIXIXIXIXIXIXIXIX!.3.} B   B   B   B   B   B   B   B   B   B   j 3.3.IXIX",
"IX!.3.0.  B   B * 3.3.IXIXIXIXOX3.3.  B   B K 3.3.IXIXIXIXIXIXIXIXIXIXIX!.3.0.  B   B   B   B   B   B   B   B   B   B O 3.3.IXIX",
"IX!.3.} B   B   M.3.3.IXIXIXIXOX3.3.B   B   ] 3.3.IXIXIXIXIXIXIXIXIXIXIX!.3.} B   B   B   B   B   B   B   B   B   B   f 3.3.IXIX",
"IX!.3.0.  B   B $ 3.3.IXIXIXIXOX3.3.  B   B K 3.3.IXIXIXIXIXIXIXIXIXIXIX!.3.0.  B   8 7 s.2 B   B   B   B   B   B   B o 3.3.IXIX",
"IX!.3.} B   B   e 3.3.IXIXIXIXOX3.3.B   B   ] 3.3.IXIXIXIXIXIXIXIXIXIXIX/.3.X.B   B 6 3.3.+.  B   B   B   B   B   B   B 3.3.OXIX",
"IXb.3.&.  B   B $ 3.3.IXIXIXIXOX3.3.  B   B K 3.3.IXIXIXIXIXIXIXIXIXIXIX/.3.,.  B   _ 3.3.3.z   B   B   B   B   B   B   3.3.OXIX",
"IXb.3.[ B   B   w 3.3.IXIXIXIXOX3.3.B   B   ] 3.3.IXIXIXIXIXIXIXIXIXIXIX/.3.X.B   B 3 3.3.3.5 B   B   B   B   B   B   B 3.3.OXIX",
"IXb.3.&.  B   B @ 3.3.IXIXIXIXOX].(.B <XB <XT.(.].KXPXKXIXIXIXKXPXKXPXKXhX(._.N 1XN D.3.3.3.O.  B   B   B   ` T C.  B   1.3..XIX",
"IXb.3.[ B   B   g 3.3.IXIXIXIXOXzXzXzXzXzXzXzXzXzXzXzXzXxXIXIXzXzXzXzXzXzXzXzXzXzXzXdX).6.3.3.x   B   B   4.3.3.} B   B -.3. XIX",
"IXb.3.&.  B   B + 3.3.IXIXIXIX{.].zX0 0 0 0 0 0 0 0 0 i :XzXCXIXzXJ.0 0 0 0 0 0 0 i %XzXyXl.3.3 B   B   B <.3.3.Q   B   1.3. XIX",
"IXb.3.[ B   B   f 3.3.IXIXIX|.3.].zX0 0 0 0 0 0 0 0 0 0 0 I.zXKXzXJ.0 0 0 0 0 0 0 0 0 F wXzXR.$.  B   B O 3.3.q.  B   B *.3.{.IX",
"IXx.3.#.  B   B O 3.3.IXIXQ.3.3.].zX0 0 0 0 0 0 0 0 0 0 0 0 zXKXzXJ.0 0 0 0 0 0 0 0 0 0 y zX(.3.l   B   ] 3.3.I B   B   ,.3.{.IX",
"IXx.3.E B   B   f 3.3..Xk.3.3.} 8XzX0 0 0 0 0 0 0 0 0 0 0 0 zXKXzXJ.0 0 G.$X4Xr 0 0 0 0 0 zX(.3.2 B   s -.3.3.a.  B   B X.3./.IX",
"IXx.3.#.  B   B   3.3.3.3.3.E Z B zX0 0 0 G.gXzXzXzXG.0 0 0 zXFXzXH 0 0 ,XzXiXaX3X0 0 0 0 zX(.3.@.  B K 3.3.3.T B   B   :.3.~.IX",
"IXx.3.E B   B   B 3.3.3.3.L V   1XzX0 0 0 >XzX`.(.zXJ.0 0 0 zXFXzXH 0 0 ,XzXe.1XdX%X0 0 0 zX(.3.2.k O 8.3.3.3.#.  B   B } 3.!.IX",
"IXx.3.#.  B   B   3.3.3.2 B   B B zX0 0 0 -XzX7.XXzXJ.0 0 0 zXFXzXH 0 0 ,XzX3.# zXJ.0 0 0 zXkX3.3., ] 3.3.y.3.E B   B   0.3.!.IX",
"IXx.3.E B   B   B K ] - B   B   1XzX0 0 0 &XzX[.IXzXJ.0 0 0 zXFXzXH 0 0 ,XzX3.2.zXJ.0 0 0 zXJXy.3.@.-.3.x.b.3.&.  B   B { 3.Q.IX",
"IXg.3.p.  B   B   B   B   B   B B zX0 0 0 @XzXIXIXzXJ.0 0 0 zXAXzXS 0 0 ,XzX3.n.zX;X0 0 0 zXKX}.3.3.3.3.IXb.3.[ B   B   &.3.b.IX",
"IXg.3.Y B   B   B   B   B   B   1XzX0 0 0 @XzXIXIXzXJ.0 0 0 zXAXzXS 0 0 ,XzXjXzX6Xv 0 u tXzXKXIX3.3.3.x.IX!.3.0.  B   B [ 3.b.IX",
"IXg.3.a.  B   B   B   B   B   V F.zX0 0 0 U.zXIXIXzXJ.0 0 0 zXAXzXS 0 0 ,XzXdX*X0 0 b wXdX0XIXIX9.3.3.IXIX!.3.} B   B   &.3.b.IX",
"IXg.3.Y B   B   B   B   B   A [ ].zX0 0 0 K.zXIXIXzXJ.0 0 0 zXAXzXS 0 0 u tXp 0 0 F fXuXd.^.IXIXc.3.u.IXIX^.3.>.  B   B E 3.k.IX",
"IXg.3.a.  B   B   B   B   Z...3.].zX0 0 0 G.zXIXIXzXJ.0 0 0 zXZXzXm 0 0 0 0 0 0 9XlXmXt.3.3.IXIXIXIXIXIXIX/.3.X.B   B   #.3.x.IX",
"IXg.3.Y B   B   B   B   A.=.3.3.'.zX0 0 0 G.zXIXIXzXJ.0 0 0 zXZXzXm 0 0 0 0 0 0 &XzXbXIXk.h.IXIXIXIXIXIXIX}.3.;.  B   B E 3.k.IX",
"IXy.3.^   B   B   B   S.2.3.3.XXPXzX0 0 0 M zXIXIXzXJ.0 0 0 zXZXzXm 0 0 0 b 0 0 0 D rXzXSXIXIXIXIXIXIXIXIX X3.-.B   B   a.3.g.IX",
"IXr.3.P B   B   B   ` 3.3.5.IXIXPXzX0 0 0 M zXIXIXzXJ.0 0 0 zXZXzXm 0 0 ,XzX&X0 0 0 u eXzXNXIXIXIXIXIXIXIX.X3.<.  B   B Y 3.g.IX",
"IXr.3.(   B   B . W 3.3.9.IXIXIXPXzX0 0 0 b zXIXIXzXJ.0 0 0 zXCXzXb 0 0 ,XzXzXL.0 0 0 0 G zXKXIXIXIXIXIXIX X3.3.B   B   a.3.g.IX",
"IXr.3.P B   B O | 3.3.i.IXIXIXIXPXzX0 0 0 b zXIXIXzXJ.0 0 0 zXCXzXb 0 0 ,XzXGXzX3X0 0 0 0 zXKXIXIXIXIXIXIX3.3.3.X B   B P 3.r.IX",
"IXr.3.(   B @  .3.3.x.IXIXIXIXIXPXzX0 0 0 i zXIXIXzXJ.0 0 0 zXCXzXb 0 0 ,XzXIXLXzXL.0 0 0 zXKXIXIXIXIXIXIXy.3.3. .# B   ( 3.r.IX",
"IXr.3.P B & =.3.3.!.IXIXIXIXIXIXPXzX0 0 0 u zXIXPXzXJ.0 0 0 zXCXzXb 0 0 ,XzXIXIXcX7X0 0 0 zXKXIXIXIXIXIXIXIXz.3.3.<.< B P 3.r.IX",
"IX5.3./ > <.3.3..XIXIXIXIXIXIXIXPXzX0 0 0 u zXMXzX4Xt 0 0 0 zXBXzXc 0 0 ,XzXIXCXaXM 0 0 0 zXKXIXIXIXIXIXIXIXIXoX3.3.3.U ) 3.5.IX",
"IX3.3. .3.3.3.IXIXIXIXIXIXIXIXIXPXzX0 0 0 0 zXzX#X0 0 0 0 0 zXBXzXc 0 0 ,XzXDXdXa 0 0 0 0 zXKXIXIXIXIXIXIXIXIXIXIXu.3.3.3.3.3.IX",
"IX3.3.3.3.9.IXIXIXIXIXIXIXIXIXIXPXzX0 0 0 0 Y.=X0 0 0 0 0 M dXDXzXc 0 0 ,XzXdXI.0 0 0 0 0 zXKXIXIXIXIXIXIXIXIXIXIXIXv.3.3.3.3.IX",
"IXb.3.3.u.IXIXIXIXIXIXIXIXIXIXIXPXzX0 0 0 0 0 0 0 0 0 0 +XaXnXIXzXc 0 0 +XzXJ 0 0 0 0 i tXzXIXIXIXIXIXIXIXIXIXIXIXIXIXOX3.3.3.{.",
"IXIXx.x.IXIXIXIXIXIXIXIXIXIXIXIXPXzX0 0 0 0 0 0 0 0 0 $XzXCXIXIXzXi 0 0 0 M 0 0 0 0 M rXxXIXIXIXIXIXIXIXIXIXIXIXIXIXIXIXIXu.3.b.",
"IXIXIXIXIXIXIXIXIXIXIXIXIXIXIXIXPXzX0 0 0 0 0 0 0 i pXxXFXIXIXIXzXi 0 0 0 0 0 0 0 P.fXbXIXIXIXIXIXIXIXIXIXIXIXIXIXIXIXIXIXIX~.IX",
"IXIXIXIXIXIXIXIXIXIXIXIXIXIXIXIXPXzX0 0 0 0 0 0 M rXdXIXIXIXIXIXzXi 0 0 0 0 0 u eXzXZXIXIXIXIXIXIXIXIXIXIXIXIXIXIXIXIXIXIXIXIXIX",
"IXIXIXIXIXIXIXIXIXIXIXIXIXIXIXIXPXzX0 0 0 0 0 H.dXbXIXIXIXIXIXIXzXi 0 0 0 0 b qXzXIXIXIXIXIXIXIXIXIXIXIXIXIXIXIXIXIXIXIXIXIXIXIX",
"IXIXIXIXIXIXIXIXIXIXIXIXIXIXIXIXPXzX0 0 0 0 5XlXCXIXIXIXIXIXIXIXzXu 0 0 0 H.fXvXIXIXIXIXIXIXIXIXIXIXIXIXIXIXIXIXIXIXIXIXIXIXIXIX",
"IXIXIXIXIXIXIXIXIXIXIXIXIXIXIXIXPXzX0 0 u 2XzXFXIXIXIXIXIXIXIXIXzXu 0 y 9XlXCXIXIXIXIXIXIXIXIXIXIXIXIXIXIXIXIXIXIXIXIXIXIXIXIXIX",
"IXIXIXIXIXIXIXIXIXIXIXIXIXIXIXIXPXzX0 n sXdXIXIXIXIXIXIXIXIXIXIXzXu v 7XzXHXIXIXIXIXIXIXIXIXIXIXIXIXIXIXIXIXIXIXIXIXIXIXIXIXIXIX",
"IXIXIXIXIXIXIXIXIXIXIXIXIXIXIXIXPXzXK.pXbXIXIXIXIXIXIXIXIXIXIXIXzXH.fXxXIXIXIXIXIXIXIXIXIXIXIXIXIXIXIXIXIXIXIXIXIXIXIXIXIXIXIXIX",
"IXIXIXIXIXIXIXIXIXIXIXIXIXIXIXIXPXzXzXVXIXIXIXIXIXIXIXIXIXIXIXPXzXdXNXIXIXIXIXIXIXIXIXIXIXIXIXIXIXIXIXIXIXIXIXIXIXIXIXIXIXIXIXIX",
"IXIXIXIXIXIXIXIXIXIXIXIXIXIXIXIXPXzXAXIXIXIXIXIXIXIXIXIXIXIXIXPXzXDXIXIXIXIXIXIXIXIXIXIXIXIXIXIXIXIXIXIXIXIXIXIXIXIXIXIXIXIXIXIX"
};
