/* XPM */
static const char *_584819608679[] = {
/* columns rows colors chars-per-pixel */
"32 32 255 2 ",
"   c #3A2626",
".  c #362828",
"X  c #312D2D",
"o  c #362E2E",
"O  c #3F2D2D",
"+  c #3D2E2E",
"@  c gray19",
"#  c #353030",
"$  c #3E3030",
"%  c #561A1A",
"&  c #671F1F",
"*  c #6F1F1F",
"=  c #711B1B",
"-  c #761F1F",
";  c #781818",
":  c #7B1B1B",
">  c #7D1E1E",
",  c #432B2B",
"<  c #452D2D",
"1  c #492B2B",
"2  c #4B2A2A",
"3  c #572727",
"4  c #5D2424",
"5  c #5D2626",
"6  c #502929",
"7  c #542929",
"8  c #552F2F",
"9  c #493030",
"0  c #4F3030",
"q  c #583030",
"w  c #642424",
"e  c #6A2222",
"r  c #6D2222",
"t  c #6C2F2F",
"y  c #712121",
"u  c #613030",
"i  c #673030",
"p  c #65543D",
"a  c #66543E",
"s  c #66543F",
"d  c #675640",
"f  c #685640",
"g  c #695843",
"h  c #6B5A45",
"j  c #6C5B46",
"k  c #6C5B47",
"l  c #6D5C48",
"z  c #6D5D4A",
"x  c #70604C",
"c  c #70614E",
"v  c #726352",
"b  c #736452",
"n  c #736454",
"m  c #736456",
"M  c #746655",
"N  c #766856",
"B  c #766858",
"V  c #796C5B",
"C  c #796C5E",
"Z  c #7D7060",
"A  c #7F7469",
"S  c #990E0E",
"D  c #9F0E0E",
"F  c #821D1D",
"G  c #841D1D",
"H  c #851F1F",
"J  c #8B1B1B",
"K  c #881D1D",
"L  c #8D1C1C",
"P  c #991717",
"I  c #9E1616",
"U  c #931A1A",
"Y  c #941F1F",
"T  c #981818",
"R  c #A10909",
"E  c #AB0C0C",
"W  c #B80000",
"Q  c #BC0101",
"!  c #BD0C0C",
"~  c #BD0F0F",
"^  c #A11616",
"/  c #A41515",
"(  c #AA1313",
")  c #A11818",
"_  c #B11212",
"`  c #B41212",
"'  c #B81111",
"]  c #822222",
"[  c #812E2E",
"{  c #982323",
"}  c #C80000",
"|  c #C90404",
" . c #C10E0E",
".. c #C40E0E",
"X. c #CB0C0C",
"o. c #C80E0E",
"O. c #D10000",
"+. c #DE0707",
"@. c #D20909",
"#. c #D20A0A",
"$. c #D60909",
"%. c #D50C0C",
"&. c #D50E0E",
"*. c #D80808",
"=. c #D80909",
"-. c #C81516",
";. c #E30000",
":. c #E70000",
">. c #E10606",
",. c #E50606",
"<. c #E90000",
"1. c #EC0303",
"2. c #E90505",
"3. c #EC0505",
"4. c #E10A0A",
"5. c #E70C0C",
"6. c #ED0B0B",
"7. c #EB0C0C",
"8. c #F30000",
"9. c #F30202",
"0. c #F20303",
"q. c #F60000",
"w. c #F60202",
"e. c #F90101",
"r. c #F80202",
"t. c #FD0101",
"y. c #FE0000",
"u. c #FD0202",
"i. c #FB0707",
"p. c #FE0404",
"a. c #FE0505",
"s. c #FE0707",
"d. c #FD0808",
"f. c #FE0B0B",
"g. c #FB0D0D",
"h. c #FE0C0C",
"j. c #FE0E0E",
"k. c #FE1010",
"l. c #FE1111",
"z. c #FE1212",
"x. c #FE1515",
"c. c #FE1818",
"v. c #FE1F1F",
"b. c #FE2020",
"n. c #FE2121",
"m. c #FE2525",
"M. c #FE2626",
"N. c #FE2828",
"B. c #FE2B2B",
"V. c #EA2C30",
"C. c #FA3232",
"Z. c #FE3030",
"A. c #FE3C3C",
"S. c #FE3D3D",
"D. c #847A6E",
"F. c #877D72",
"G. c #867C73",
"H. c #887F77",
"J. c #FE4040",
"K. c #FE4B4B",
"L. c #FE5050",
"P. c #FF5555",
"I. c #FE5858",
"U. c #FE5A5A",
"Y. c #FF5F5F",
"T. c #D05B60",
"R. c #DD6366",
"E. c #CF777C",
"W. c #D7767B",
"Q. c #EA6064",
"!. c #FE6060",
"~. c #FE6161",
"^. c #FE6262",
"/. c #FE6767",
"(. c #FE6C6C",
"). c #FE6D6D",
"_. c #FD6E6E",
"`. c #FE6F6F",
"'. c #FE7171",
"]. c #FE7272",
"[. c #FE7373",
"{. c #FF7777",
"}. c #FF7F7F",
"|. c #8B8278",
" X c #8B8279",
".X c #8D857E",
"XX c #8E867F",
"oX c #90877F",
"OX c #8F8680",
"+X c #908882",
"@X c #908984",
"#X c #918A85",
"$X c #938C88",
"%X c #958E89",
"&X c #958E8B",
"*X c #958F8C",
"=X c #97918C",
"-X c #96908E",
";X c #9A948F",
":X c #989291",
">X c #9C9793",
",X c #9A9494",
"<X c #95969C",
"1X c #9B9798",
"2X c #97989C",
"3X c #9E9A99",
"4X c #BD8185",
"5X c #A58A90",
"6X c #B98A90",
"7X c #BF8B91",
"8X c #B98C90",
"9X c #A19A9A",
"0X c #A09C9A",
"qX c #BF989C",
"wX c #A3A0A3",
"eX c #A4A1A1",
"rX c #A5A2A1",
"tX c #A5A2A3",
"yX c #A7A5A6",
"uX c #AAA7A8",
"iX c #BFA0A9",
"pX c #B0AEB2",
"aX c #B7B6BA",
"sX c #C98A90",
"dX c #CB8C90",
"fX c #CA8F93",
"gX c #C8959B",
"hX c #D79298",
"jX c #C1A3A8",
"kX c #C8A9AF",
"lX c #DAB7BB",
"zX c #B7B9C1",
"xX c #BCBCC0",
"cX c #BCBDC5",
"vX c #BCBDC6",
"bX c #BEBFC8",
"nX c #C0C1CA",
"mX c #C2C3CC",
"MX c #C6C7CC",
"NX c #C4C5CE",
"BX c #C8C9CF",
"VX c #CACACE",
"CX c #D2C8CD",
"ZX c #C6C7D0",
"AX c #C9CAD2",
"SX c #CBCCD2",
"DX c #CECFD5",
"FX c #CFD0D6",
"GX c #D0D1D7",
"HX c #D1D2D6",
"JX c #D0D1D8",
"KX c #D2D3D9",
"LX c #D5D6DB",
"PX c #D9DADE",
"IX c None",
/* pixels */
"J.y.y.y.y.y.y.y.y.j.IXIXIXIXIXIXIXJ.y.y.y.y.y.}.IXIX^.y.y.y.y.A.",
"IXy.w w w w w w w ) y.IXIXIXIXIXIXIXa.{ w w O.`.IXIXa.* < - y.IX",
"IXy.@ @ @ @ @ @ @ @ = d.hXIXIXIXIXIXd.e @ @ ] k.IXY.&.@ @ 4 y.IX",
"IXy.@ @ @ @ @ @ @ @ @ X.[.IXIXIXIXIXd.r @ @ # <.].a.& @ @ 3 y.IX",
"IXr.@ @ E y.y.y.7.@ @ X.}.IXIXIXIXIXk.y @ @ @ P y.&.@ @ @ 7 y.IX",
"IXr.@ @ o.U.IXIXy.@ @ X.}.IXIXIXIXIXk.y @ @ @ 4 y.] @ @ @ 6 y.IX",
"IXr.@ @ ..{.IXIXy.@ @ X.}.IXIXIXIXIXc.y @ @ @ q R . @ @ @ 2 y.IX",
"IX0.@ @ ~ `.IXIXy.@ @ o.}.IXIXIXIXIXc.y @ @ @ @ @ @ @ @ @ 1 y.IX",
"IX0.@ @ ~ `.IXIXy.@ @ o.}.IXIXIXIXIXb.> @ @ @ @ @ @ @ @ @ , y.IX",
"IX0.@ @ ' /.IXIXy.@ X X.}.IXIXIXIXIXb.> @ @ @ @ @ @ @ @ @ $ y.IX",
"IX3.@ @ ` ^.IXIXy.@ @ X.}.IXIXIXIXIXM.F @ @ @ @ @ @ @ @ @ + y.IX",
"IX3.@ @ _ Y.IXIXy.@ @ X.}.IXIXIXIXIXN.G @ @ @ @ @ @ @ @ @ o y.IX",
"IX3.@ @ ( U.IXIXy.@ @ X.}.IXIXIXIXIXB.K @ S  .@ @ @ @ @ @ # y.IX",
"IX,.@ @ ( P.IXIXy.@ @ X.}.IXIXIXIXIXZ.J @  .y.8 @ @ @ X @ @ y.IX",
"IX,.@ @ / K.IXIXsX<X<X6XkXBXIXIXBXBXgX5X2XT.y.U @ @ % &.t @ r.IX",
"IX,.@ @ ^ K.IX{.dXa a a a a XXJX,Xa a a d  X7X-.@ @ T d.  @ w.IX",
"IX+.@ @ I J.U.0.qXp a a p p p ZX1Xp B n a p OXV.0 X 7.$.@ @ 0.IX",
"IX+.@ @ T y.:.u 2Xp V iXiXn p mX,Xa uX4X@Xa XXV.K : y.+.@ @ 1.IX",
"IX+.@ @ ; ! 9 @ 2Xp Z W.lXm p ZX,Xp uX} ,Xa XXQ.| 5.b.>.@ @ 2.IX",
"IX=.@ @ @ @ @ @ 2Xp C LXPXm p mX:Xp uXR.-Xa 0XIXy.j.IX2.@ @ ,.IX",
"IX=.@ @ @ @ @ i 8Xp N KXPXm p mX:Xp ;XG.h 3XE.IXk.].IX<.@ @ >.IX",
"IX=.@ @ @ @ [ w.fXp b FXPXn p nX-Xp p p yXhXx.IXIXIXIXw.@ @ +.IX",
"IX#.@ @ @ Y u.IXVXp x FXPXn p nX-Xp |.c k >XCXIXIXIXIXr.@ @ =.IX",
"IX#.@ # R d.IXIXVXp h SXPXn p bX-Xp uXpXb a %XIXIXIXIXy.@ @ $.IX",
"IX#.$ Q k.IXIXIXVXp d SXFXn p bX=Xp uXIXwXa XXIXIXIXIXj.Q 9 #.IX",
"IX4.O.M.IXIXIXIXVXp a zX@Xd a cX#Xa uXFXA a XXIXIXIXIXIXC.:.7.IX",
"IXy.A.IXIXIXIXIXVXp a V a a |.VX#Xa wX|.a a 0XIXIXIXIXIXIX`.y.U.",
"IXIXIXIXIXIXIXIXVXa a a d -XFXIX#Xa h a z tXIXIXIXIXIXIXIXIXIXY.",
"IXIXIXIXIXIXIXIXVXa p k tXIXIXIX#Xa a C xXIXIXIXIXIXIXIXIXIXIXIX",
"IXIXIXIXIXIXIXIXVXa M aXIXIXIXIXOXa XXSXIXIXIXIXIXIXIXIXIXIXIXIX",
"IXIXIXIXIXIXIXIXVXD.BXIXIXIXIXIX=X3XIXIXIXIXIXIXIXIXIXIXIXIXIXIX",
"IXIXIXIXIXIXIXIXBXFXIXIXIXIXIXIXcXIXIXIXIXIXIXIXIXIXIXIXIXIXIXIX"
};
