/* XPM */
static const char *_openxx[] = {
/* columns rows colors chars-per-pixel */
"32 32 151 2 ",
"   c #392D02",
".  c #3E3107",
"X  c #4A3302",
"o  c #4F3E04",
"O  c #523A02",
"+  c #593F00",
"@  c #564204",
"#  c #5A4204",
"$  c #584A1F",
"%  c #624600",
"&  c #7A5A00",
"*  c #4B4B4B",
"=  c #565656",
"-  c gray47",
";  c #7C7C7C",
":  c gray50",
">  c #805E00",
",  c #815E00",
"<  c #8A6300",
"1  c #8D6700",
"2  c #8E6600",
"3  c #8D6800",
"4  c #8F6F1E",
"5  c #A77B34",
"6  c #D07402",
"7  c #D07606",
"8  c #A3853A",
"9  c #B6833C",
"0  c #F4970F",
"q  c #F49913",
"w  c #F59E13",
"e  c #F59F16",
"r  c #C8A019",
"t  c #F5A514",
"y  c #F5A617",
"u  c #F6AB17",
"i  c #F6AD1B",
"p  c #F7B21B",
"a  c #F7B41E",
"s  c #F7B91D",
"d  c #F8BF1F",
"f  c #D78723",
"g  c #F5A82E",
"h  c #F7BB20",
"j  c #F6AC31",
"k  c #F7B231",
"l  c #F7B834",
"z  c #F8BE37",
"x  c #F8C022",
"c  c #F9C421",
"v  c #F9C722",
"b  c #F9C524",
"n  c #F9C925",
"m  c #F9C438",
"M  c #FAC83B",
"N  c #FACC3C",
"B  c #FACF3D",
"V  c #BC8B41",
"C  c #BD8E40",
"Z  c #BD9042",
"A  c #BD9243",
"S  c #BD9343",
"D  c #BD9543",
"F  c #BD9643",
"G  c #BD9743",
"H  c #BD9843",
"J  c #B29151",
"K  c #B99454",
"L  c #E9B367",
"P  c #F9C950",
"I  c #FACD70",
"U  c #FAD072",
"Y  c #FAD472",
"T  c #FBD674",
"R  c #FBDA76",
"E  c #FBDD77",
"W  c #FCDF79",
"Q  c #FCE279",
"!  c #FCE37B",
"~  c #8E8E8E",
"^  c gray56",
"/  c #909090",
"(  c gray57",
")  c #929292",
"_  c gray58",
"`  c #979797",
"'  c #9B9B9B",
"]  c #A2A2A2",
"[  c gray64",
"{  c #A4A4A4",
"}  c gray65",
"|  c #A7A7A7",
" . c gray66",
".. c #AAAAAA",
"X. c gray67",
"o. c gray68",
"O. c gray69",
"+. c #B2B2B2",
"@. c #B4B4B4",
"#. c gray71",
"$. c gray",
"%. c #D2C38A",
"&. c #E7C79B",
"*. c #E8D59B",
"=. c #EAD89C",
"-. c #EAD99D",
";. c #EAD99E",
":. c #EADAA0",
">. c #EADBA0",
",. c #EADCA1",
"<. c #EADDA2",
"1. c #EADDA6",
"2. c #F8DCAE",
"3. c #E9DEBB",
"4. c #F1DCBE",
"5. c #F1DDBF",
"6. c #FCEEB3",
"7. c #FDEEB4",
"8. c #FDF0B5",
"9. c #FDF1B6",
"0. c #FDF2B7",
"q. c #FDF3B8",
"w. c #FDF4B9",
"e. c #FDF5BA",
"r. c #FEF6BE",
"t. c #C1C1C1",
"y. c gray76",
"u. c gray77",
"i. c #D0D0D0",
"p. c LightGray",
"a. c #DADADA",
"s. c gray86",
"d. c #DDDDDD",
"f. c #F3E2C8",
"g. c #FDF5C0",
"h. c #EAE1D8",
"j. c gray89",
"k. c #E4E4E4",
"l. c gray91",
"z. c #E9E9E9",
"x. c gray93",
"c. c #EEEEEE",
"v. c #F9EFE0",
"b. c #F1F1F1",
"n. c gray95",
"m. c gray96",
"M. c #FCF9F5",
"N. c #F9F9F9",
"B. c #FDFDFD",
"V. c #FEFEFE",
"C. c None",
/* pixels */
"C.C.C.C.C.C.C.C.C.C.C.C.C.C.C.C.C.C.C.C.C.C.C.C.C.C.C.C.C.C.C.C.",
"C.C.C.C.C.C.C.C.C.C.C.C.- p.l.V.V.l.i.: C.C.C.C.C.C.C.C.C.C.C.C.",
"C.C.C.C.C.C.C.C.C.C.C.k.b.a.u.o.o.t.a.b.j.C.C.C.C.C.C.C.C.C.C.C.",
"C.C.C.C.C.C.C.C.C...V.d.[ } ' ( ( ' } [ d.V...C.C.C.C.C.C.C.C.C.",
"C.C.C.C.C.C.C.C.( l.$.O.[ * C.C.C.C.* [ #.$.l.( C.C.C.C.C.C.C.C.",
"C.C.C.C.C.C.C.C.m.$.O.' C.C.C.C.C.C.C.C.' O.$.N.C.C.C.C.C.C.C.C.",
"C.C.C.C.C.C.C.O.p.` #.C.C.C.C.C.C.C.C.C.C.#.` p.O.C.C.C.C.C.C.C.",
"C.C.C.C.C.C.C.l.o...: C.C.C.C.C.C.C.C.C.C.: ....l.C.C.C.C.C.C.C.",
"C.C.C.C.C.C.C.b.` t.C.C.C.C.C.C.C.C.C.C.C.C.t.( m.C.C.C.C.C.C.C.",
"C.C.C.C.C.C.C.b.^ a.C.C.C.C.C.C.C.C.C.C.C.C.a.^ b.C.C.C.C.C.C.C.",
"C.C.C.C.C.C.C.c.^ j.C.C.C.C.C.C.C.C.C.C.C.C.j./ c.C.C.C.C.C.C.C.",
"C.C.C.C.C.C.C.^ = ^ C.C.C.C.C.C.C.C.C.C.C.C.l./ c.C.C.C.C.C.C.C.",
"C.C.C.C.C.C.C.C.C.C.C.C.C.C.C.C.C.C.C.C.C.C.c.( c.C.C.C.C.C.C.C.",
"C.C.C.C.C.1 3 3 3 3 3 1 3 3 3 1 3 3 3 3 1 , 8 4 8 , 1 C.C.C.C.C.",
"C.C.C.C.J h.M.v.f.5.5.4.5.4.4.4.4.4.5.4.4.4.5.f.v.M.h.J C.C.C.C.",
"C.C.C.1 K 3.g.! B n v v v v v v v v v v v v n B ! r.3.K 1 C.C.C.",
"C.C.C.3 D 1.e.! B n v v v v v v v v v v v v n B ! e.1.G 1 C.C.C.",
"C.C.C.3 D <.e.! B v v v v v v v v v v v v v n B ! e.<.H 3 C.C.C.",
"C.C.C.3 H <.e.! B n v v v v v v v v v v v v n B ! e.<.G 3 C.C.C.",
"C.C.C.3 H <.e.! B n v v v v r o o r v v v v n B ! e.<.G 3 C.C.C.",
"C.C.C.3 G 1.e.! B n v v v v .     . v v v v n B ! e.<.G 3 C.C.C.",
"C.C.C.3 G >.e.! B v c c c c $ @ @ $ c c c c c B ! w.>.G 3 C.C.C.",
"C.C.C.3 G >.w.W M c h d d d %.# # %.d d d d h N W w.<.G 3 C.C.C.",
"C.C.C.3 S >.9.E m h s s s a P O O P s s s s h m E 9.>.S 3 C.C.C.",
"C.C.C.3 S >.w.T z h i a p p p X X p p p i a a z R 9.,.F 2 C.C.C.",
"C.C.C.3 S =.9.T l i u u u u u r.r.u u u u u i l T 9.;.F 2 C.C.C.",
"C.C.C.3 C =.7.Y k t t t t t t t t t t t t t y k Y 9.;.9 2 C.C.C.",
"C.C.C.1 V =.7.Y j e w w w w w w w w w w w w t j I 7.;.V 2 C.C.C.",
"C.C.C.< 9 =.6.I g w 0 0 0 0 0 0 0 0 0 0 0 0 q g I 6.*.9 1 C.C.C.",
"C.C.C.% 5 &.2.L f 7 6 6 6 6 6 6 6 6 6 6 6 6 7 f L 2.&.5 % C.C.C.",
"C.C.C.C.+ & > > < & & , < & < & & , , , < & & , , , & # C.C.C.C.",
"C.C.C.C.C.C.C.C.C.C.C.C.C.C.C.C.C.C.C.C.C.C.C.C.C.C.C.C.C.C.C.C."
};
