/* XPM */
static char *_add[] = {
/* columns rows colors chars-per-pixel */
"32 32 89 1 ",
"  c gray20",
". c #3D5100",
"X c #425600",
"o c #445900",
"O c #465715",
"+ c #53631F",
"@ c #526323",
"# c #5C6B2E",
"$ c #617136",
"% c #66763B",
"& c #464849",
"* c #474E55",
"= c #494F57",
"- c #4E555C",
"; c #6D7C42",
": c #707F47",
"> c #525962",
", c #5B5F63",
"< c #5F6263",
"1 c #5B636B",
"2 c #636667",
"3 c #656669",
"4 c #63686C",
"5 c #6C6D6F",
"6 c #616A73",
"7 c #696E74",
"8 c #6A7075",
"9 c #6C737C",
"0 c #77797C",
"q c #7B7C7E",
"w c #75824A",
"e c #7E886B",
"r c #A1D90A",
"t c #AFDE0D",
"y c #B3E00D",
"u c #C1E410",
"i c #C9E812",
"p c #D7ED15",
"a c #DBEE17",
"s c #818B6F",
"d c #879074",
"f c #767B80",
"g c #7C7E81",
"h c #7E8082",
"j c #7B828A",
"k c #818486",
"l c #858789",
"z c #86898A",
"x c #848A91",
"c c #898D91",
"v c #8E949A",
"b c #93969A",
"n c #969A9E",
"m c #999C9E",
"M c #A6AE91",
"N c #9B9EA1",
"B c #9EA1A5",
"V c #9FA3A8",
"C c #A4A5A5",
"Z c #A3A6A9",
"A c #A6A9AC",
"S c #ABAEAF",
"D c #ABAEB1",
"F c #AEB1B5",
"G c #B1B3B6",
"H c #B2B6B9",
"J c #B6B9BC",
"K c #BABDBF",
"L c #BCBFC1",
"P c #BEC1C3",
"I c #C1C3C5",
"U c #C4C6C8",
"Y c #C6C9CC",
"T c #C9CBCC",
"R c #CBCED0",
"E c #CED0D2",
"W c #D2D5D6",
"Q c #D5D6D8",
"! c #D6D8DA",
"~ c #DADCDE",
"^ c #DCDEE0",
"/ c #DEE0E1",
"( c #E2E4E6",
") c #E5E7E9",
"_ c #E7E8E9",
"` c #EBECED",
"' c gray96",
"] c #F8F9F9",
"[ c None",
/* pixels */
"[[[[[[[[[[[[[[[[[[[[[[[[[[[[[[[[",
"[[[[[[[[[[[[[[[[[[[[[[[[[[[[[[[[",
"[[[[[[[[[[[[[[[[[[[[[[[[[[[[[[[[",
"[[[[[[[[[[[[[[[[[[[[[[[[[[[[[[[[",
"[[[[[[[[[[CCCCZAACCCCC[[[[[[[[[[",
"[[[[[[BCSKTQ!!~/(/QQWTKSCB[[[[[[",
"[[[[mGY!~~~~~~^~~~~~/~~/~YGm[[[[",
"[[[MTQWWWQQQQQWWQWQQWWQWWWWYC[[[",
"[[[LTRRRRRRRRRRRRRRRRRRRRRRRL[[[",
"[[[nUUUUUUUYUUUUUUYYUUUYUUUEC[[[",
"[[[7GTTLLKKPLLLLLLLLLLLLPQ`/z[[[",
"[[[2hDQ`(WTLLLJHHLPLPR^`]'`Ek[[[",
"[[[2gmGPUUTTUPLLLYW^()`)'`)Ee[[[",
"[[[[0mHPKGDAZZBVAFLYW^/)``_L[[[[",
"[[[2,7mPKGDAZNNNVDLR^^/(`WN7g[[[",
"[[[2m7-=40cnnvNNVAALLAv7*>gWg[[[",
"[[[2lKFx6>>>--=*=*===>11vQ`Wg[[[",
"[[[2gNI!!LVjgf966fjjve;:w:MWg[[[",
"[[[2hmGILLLLLAAAALYQ^:aaaa:Eg[[[",
"[[[[0mGILFAANNvNVALY^:uyyuwY[[[[",
"[[[<,7NLLFDANNNnVALLQ:trry#8g[[[",
"[[[3m7-=1fxnnvnNVe$;%$trry@;@X[[",
"[[[3zLHj1,>---==*OpapitrrtippaX[",
"[[[4jNP^!LNxjg966@ytttrrrrtyyuX[",
"[[[3kmHILKLLJGDDG%trrrrrrrrrryX[",
"[[[ qNHIKGDAZCBVA$trrrrrrrrrrto[",
"[[[[[<mLKHDDAZZADd;;;:rrrr@.XX[[",
"[[[[[[[[&5lmNnADHJFLI#trrtX[[[[[",
"[[[[[[[[[[[[[[[[[[[[[.yrryX[[[[[",
"[[[[[[[[[[[[[[[[[[[[[Xyrryo[[[[[",
"[[[[[[[[[[[[[[[[[[[[[[oooo[[[[[[",
"[[[[[[[[[[[[[[[[[[[[[[[[[[[[[[[["
};
