/* XPM */
static char *_closed[] = {
/* columns rows colors chars-per-pixel */
"32 32 151 2 ",
"   c #392D02",
".  c #3E3107",
"X  c #4A3302",
"o  c #4F3E04",
"O  c #523A02",
"+  c #593F00",
"@  c #564204",
"#  c #5A4204",
"$  c #584A1F",
"%  c #624600",
"&  c #7A5A00",
"*  c #4B4B4B",
"=  c gray47",
"-  c #7C7C7C",
";  c gray50",
":  c #805E00",
">  c #815E00",
",  c #8A6300",
"<  c #8D6700",
"1  c #8E6600",
"2  c #8D6800",
"3  c #8F6F1E",
"4  c #A77B34",
"5  c #D07402",
"6  c #D07606",
"7  c #A2853A",
"8  c #A3853A",
"9  c #B6833C",
"0  c #F4970F",
"q  c #F49913",
"w  c #F59E13",
"e  c #F59F16",
"r  c #C8A019",
"t  c #F5A514",
"y  c #F5A617",
"u  c #F6AB17",
"i  c #F6AD1B",
"p  c #F7B21B",
"a  c #F7B41E",
"s  c #F7B91D",
"d  c #F8BF1F",
"f  c #D78723",
"g  c #F5A82E",
"h  c #F7BB20",
"j  c #F6AC31",
"k  c #F7B231",
"l  c #F7B834",
"z  c #F8BE37",
"x  c #F8C022",
"c  c #F9C421",
"v  c #F9C722",
"b  c #F9C524",
"n  c #F9C925",
"m  c #F9C438",
"M  c #FAC83B",
"N  c #FACC3C",
"B  c #FACF3D",
"V  c #BC8B41",
"C  c #BD8E40",
"Z  c #BD9042",
"A  c #BD9243",
"S  c #BD9343",
"D  c #BD9543",
"F  c #BD9643",
"G  c #BD9743",
"H  c #BD9843",
"J  c #B29151",
"K  c #B99454",
"L  c #E9B367",
"P  c #F9C950",
"I  c #FACD70",
"U  c #FAD072",
"Y  c #FAD472",
"T  c #FBD674",
"R  c #FBDA76",
"E  c #FBDD77",
"W  c #FCDF79",
"Q  c #FCE279",
"!  c #FCE37B",
"~  c #8E8E8E",
"^  c gray56",
"/  c #909090",
"(  c #929292",
")  c gray58",
"_  c #979797",
"`  c #9B9B9B",
"'  c #A2A2A2",
"]  c gray64",
"[  c #A4A4A4",
"{  c gray65",
"}  c #A7A7A7",
"|  c gray66",
" . c #AAAAAA",
".. c gray67",
"X. c gray68",
"o. c gray69",
"O. c #B2B2B2",
"+. c #B4B4B4",
"@. c gray71",
"#. c gray",
"$. c #D2C38A",
"%. c #E7C79B",
"&. c #E8D59B",
"*. c #EAD89C",
"=. c #EAD99D",
"-. c #EAD99E",
";. c #EADAA0",
":. c #EADBA0",
">. c #EADCA1",
",. c #EADDA2",
"<. c #EADDA6",
"1. c #F8DCAE",
"2. c #E9DEBB",
"3. c #F1DCBE",
"4. c #F1DDBF",
"5. c #FCEEB3",
"6. c #FDEEB4",
"7. c #FDF0B5",
"8. c #FDF1B6",
"9. c #FDF2B7",
"0. c #FDF3B8",
"q. c #FDF4B9",
"w. c #FDF5BA",
"e. c #FEF6BE",
"r. c #C1C1C1",
"t. c gray76",
"y. c gray77",
"u. c #D0D0D0",
"i. c LightGray",
"p. c #DADADA",
"a. c gray86",
"s. c #DDDDDD",
"d. c #F3E2C8",
"f. c #FDF5C0",
"g. c #EAE1D8",
"h. c gray89",
"j. c #E4E4E4",
"k. c gray91",
"l. c #E9E9E9",
"z. c #EAEAEA",
"x. c gray93",
"c. c #EEEEEE",
"v. c #F9EFE0",
"b. c #F1F1F1",
"n. c gray95",
"m. c gray96",
"M. c #FCF9F5",
"N. c #F9F9F9",
"B. c #FDFDFD",
"V. c #FEFEFE",
"C. c None",
/* pixels */
"C.C.C.C.C.C.C.C.C.C.C.C.C.C.C.C.C.C.C.C.C.C.C.C.C.C.C.C.C.C.C.C.",
"C.C.C.C.C.C.C.C.C.C.C.C.C.C.C.C.C.C.C.C.C.C.C.C.C.C.C.C.C.C.C.C.",
"C.C.C.C.C.C.C.C.C.C.C.C.= u.j.B.B.z.i.= C.C.C.C.C.C.C.C.C.C.C.C.",
"C.C.C.C.C.C.C.C.C.C.C.j.n.s.y.X. .y.s.n.h.C.C.C.C.C.C.C.C.C.C.C.",
"C.C.C.C.C.C.C.C.C. .B.s.]  .` / / ` } } p.B. .C.C.C.C.C.C.C.C.C.",
"C.C.C.C.C.C.C.C.~ z.#.o.] * C.C.C.C.* ] @.#.z./ C.C.C.C.C.C.C.C.",
"C.C.C.C.C.C.C.C.N.#.o._ C.C.C.C.C.C.C.C._ o.#.N.C.C.C.C.C.C.C.C.",
"C.C.C.C.C.C.C.o.i._ @.C.C.C.C.C.C.C.C.C.C.@._ i.o.C.C.C.C.C.C.C.",
"C.C.C.C.C.C.C.j.X. .; C.C.C.C.C.C.C.C.C.C.~ ..X.z.C.C.C.C.C.C.C.",
"C.C.C.C.C.C.C.n.` r.C.C.C.C.C.C.C.C.C.C.C.C.r./ m.C.C.C.C.C.C.C.",
"C.C.C.C.C.C.C.n.~ p.C.C.C.C.C.C.C.C.C.C.C.C.p.~ n.C.C.C.C.C.C.C.",
"C.C.C.C.C.C.C.x.~ j.C.C.C.C.C.C.C.C.C.C.C.C.h.^ x.C.C.C.C.C.C.C.",
"C.C.C.C.C.C.C.x./ z.C.C.C.C.C.C.C.C.C.C.C.C.z.~ x.C.C.C.C.C.C.C.",
"C.C.C.C.C.< > 8 3 8 > < 2 2 2 < 2 2 2 2 < > 8 3 8 > < C.C.C.C.C.",
"C.C.C.C.J g.M.v.d.4.4.4.4.3.3.3.3.3.4.3.4.3.4.d.v.M.g.J C.C.C.C.",
"C.C.C.< K 2.f.! B n v v v v v v v v v v v v n B ! f.2.K < C.C.C.",
"C.C.C.2 D <.w.! B n v v v v v v v v v v v v n B ! w.<.G < C.C.C.",
"C.C.C.2 D ,.w.! B v v v v v v v v v v v v v n B ! w.,.H 2 C.C.C.",
"C.C.C.2 H ,.w.! B n v v v v v v v v v v v v n B ! w.,.G 2 C.C.C.",
"C.C.C.2 H ,.w.! B n v v v v r o o r v v v v n B ! w.,.G 2 C.C.C.",
"C.C.C.2 G <.w.! B n v v v v .     . v v v v n B ! w.,.G 2 C.C.C.",
"C.C.C.2 G :.w.! B v c c c c $ @ @ $ c c c c c B ! q.:.G 2 C.C.C.",
"C.C.C.2 G :.q.W M c h d d d $.# # $.d d d d h N W q.,.G 2 C.C.C.",
"C.C.C.2 S :.8.E m h s s s a P O O P s s s s h m E 8.:.S 2 C.C.C.",
"C.C.C.2 S :.q.T z h i a p p p X X p p p i a a z R 8.>.F 1 C.C.C.",
"C.C.C.2 S *.8.T l i u u u u u e.e.u u u u u i l T 8.-.F 1 C.C.C.",
"C.C.C.2 C *.6.Y k t t t t t t t t t t t t t y k Y 8.-.9 1 C.C.C.",
"C.C.C.< V *.6.Y j e w w w w w w w w w w w w t j I 6.-.V 1 C.C.C.",
"C.C.C., 9 *.5.I g w 0 0 0 0 0 0 0 0 0 0 0 0 q g I 5.&.9 < C.C.C.",
"C.C.C.% 4 %.1.L f 6 5 5 5 5 5 5 5 5 5 5 5 5 6 f L 1.%.4 % C.C.C.",
"C.C.C.C.+ & : : , & & > , & , & & > > > , & & > > > & # C.C.C.C.",
"C.C.C.C.C.C.C.C.C.C.C.C.C.C.C.C.C.C.C.C.C.C.C.C.C.C.C.C.C.C.C.C."
};
