/* XPM */
static char *_cog[] = {
/* columns rows colors chars-per-pixel */
"32 32 169 2 ",
"   c black",
".  c #181818",
"X  c gray11",
"o  c gray13",
"O  c gray15",
"+  c #414244",
"@  c #444545",
"#  c #4E4F51",
"$  c #5B5B5B",
"%  c #676A6A",
"&  c #696B6C",
"*  c #6E7171",
"=  c #6F7373",
"-  c gray44",
";  c gray45",
":  c #787B7D",
">  c #7A7B7D",
",  c #7B7D7D",
"<  c #7F7F82",
"1  c #7F8080",
"2  c #818282",
"3  c #838686",
"4  c #868689",
"5  c #8D8E8E",
"6  c #8C8E8F",
"7  c gray56",
"8  c #8F9292",
"9  c #9A9D9D",
"0  c #9D9E9E",
"q  c #9C9E9F",
"w  c #A7A8A8",
"e  c #ADAFB0",
"r  c #AFB2B2",
"t  c #B5B7B7",
"y  c #B3B7B8",
"u  c #B5B8BA",
"i  c #B6B9BB",
"p  c #B7BABC",
"a  c #B7BBBD",
"s  c #B9BCBE",
"d  c #B8BDBF",
"f  c #BBBDBE",
"g  c #BABEBF",
"h  c #BABFBF",
"j  c #BBBFC0",
"k  c #BCBFC0",
"l  c #BCBFC1",
"z  c #BDBFC1",
"x  c #BDBFC2",
"c  c #BDC0C2",
"v  c #BFC1C2",
"b  c #BEC1C3",
"n  c #BEC3C5",
"m  c #C0C2C4",
"M  c #C0C4C5",
"N  c #C1C5C6",
"B  c #C2C5C6",
"V  c #C2C5C7",
"C  c #C3C6C8",
"Z  c #C4C6C8",
"A  c #C4C7C9",
"S  c #C5C7C9",
"D  c #C6C9CB",
"F  c #C6CACB",
"G  c #C7CACB",
"H  c #C9CBCC",
"J  c #C9CCCD",
"K  c #CACDCF",
"L  c #CBCECF",
"P  c #CACED0",
"I  c #CBCED0",
"U  c #CDCFD1",
"Y  c #CCD0D0",
"T  c #CDD0D0",
"R  c #CCD0D1",
"E  c #CED0D1",
"W  c #CDD0D2",
"Q  c #CED0D2",
"!  c #CFD2D4",
"~  c #D0D0D1",
"^  c #D0D1D2",
"/  c #D1D3D6",
"(  c #D1D4D5",
")  c #D0D4D6",
"_  c #D2D6D7",
"`  c #D3D6D7",
"'  c #D5D6D7",
"]  c #D4D6D8",
"[  c #D4D7D8",
"{  c #D4D7D9",
"}  c #D5D7D9",
"|  c #D6D7D8",
" . c #D5D8D9",
".. c #D4D8DB",
"X. c #D6D9DB",
"o. c #D6DADB",
"O. c #D7DADB",
"+. c #D7DBDC",
"@. c #DADADB",
"#. c #DADBDB",
"$. c #D8DBDD",
"%. c #D9DCDE",
"&. c #DADCDE",
"*. c #DADDDE",
"=. c #DBDDDE",
"-. c #DBDEDE",
";. c #DADEE0",
":. c #DBDFE0",
">. c #DBDFE1",
",. c #DCDFE0",
"<. c #DDE0E1",
"1. c #DDE1E3",
"2. c #DFE0E2",
"3. c #DFE1E2",
"4. c #DEE1E3",
"5. c #DFE1E3",
"6. c #DFE3E4",
"7. c #E2E3E4",
"8. c #E0E4E5",
"9. c #E1E4E5",
"0. c #E2E4E6",
"q. c #E4E6E6",
"w. c #E3E6E9",
"e. c #E3E7E9",
"r. c #E4E6E8",
"t. c #E4E7E8",
"y. c #E4E7E9",
"u. c #E7E9EB",
"i. c #E7EAEC",
"p. c #E8EAEB",
"a. c #E8EBED",
"s. c #E8ECED",
"d. c #E9EDED",
"f. c #EAECED",
"g. c #E9EDEE",
"h. c #ECEFF0",
"j. c #EDEFF0",
"k. c #ECEFF1",
"l. c #ECF0F1",
"z. c #EDF0F1",
"x. c #EDF1F2",
"c. c #EEF1F2",
"v. c #EFF2F3",
"b. c #EFF2F4",
"n. c #F0F1F1",
"m. c #F0F1F2",
"M. c #F0F2F3",
"N. c #F1F2F4",
"B. c #F1F3F5",
"V. c #F1F4F5",
"C. c #F2F4F5",
"Z. c #F2F5F5",
"A. c #F1F5F6",
"S. c #F3F5F6",
"D. c #F2F5F7",
"F. c #F4F5F7",
"G. c #F3F6F8",
"H. c #F4F6F8",
"J. c #F5F6F8",
"K. c #F5F8F9",
"L. c #F6F8F9",
"P. c #F6F9F9",
"I. c #F5F9FA",
"U. c #F6F9FB",
"Y. c #F7FAFC",
"T. c #F8FAFC",
"R. c #FCFDFD",
"E. c #FCFDFE",
"W. c None",
/* pixels */
"W.W.W.W.W.W.W.W.W.W.W.W.W.W.W.W.W.W.W.W.W.W.W.W.W.W.W.W.W.W.W.W.",
"W.W.W.W.W.W.W.W.W.W.W.W.W.W.W.    W.W.W.W.W.W.W.W.W.W.W.W.W.W.W.",
"W.W.W.W.W.W.W.W.W.W.W.W.W.W.#.E.R.-.W.W.W.W.W.W.W.W.W.W.W.W.W.W.",
"W.W.W.W.W.W.W.W.W.W.W.W.W.  U.T.U.T.  W.W.W.W.W.W.W.W.W.W.W.W.W.",
"W.W.W.W.W.W.W.W.W.W.W.W.W.  U.I.K.U.  W.W.W.W.W.W.W.W.W.W.W.W.W.",
"W.W.W.W.W.W., -.1 W.W.O q U I.G.J.K.U q O W.W.1 -., W.W.W.W.W.W.",
"W.W.W.W.W.: Z.K.J.7 w l.J.G.Z.Z.Z.G.G.J.M.w 7 J.K.Z.: W.W.W.W.W.",
"W.W.W.W.W...b.b.Z.Z.J.Z.b.b.b.b.b.b.b.b.Z.Z.Z.N.b.b.+.W.W.W.W.W.",
"W.W.W.W.W.1 N.b.l.x.x.x.l.l.l.x.x.x.x.x.x.x.x.x.b.N.2 W.W.W.W.W.",
"W.W.W.W.W.W.4 h.f.f.s.s.i.! C p p n ! i.s.s.s.f.h.4 W.W.W.W.W.W.",
"W.W.W.W.W.W.q f.i.i.i.<.n d d d d d d n ;.i.u.i.f.q W.W.W.W.W.W.",
"W.W.W.W.W.X <.u.e.e.+.c l v l v c c c c c $.e.u.i.<.X W.W.W.W.W.",
"W.W.W.W.W.< u.9.6.1.C N N J ..7.0...J N N Z <.0.9.r.7 W.W.W.W.W.",
"W.W.W.    m 0.<.1._ F F R -.H $ $ F -.R F F _ <.1.9.n     W.W.W.",
"W.W.F h.f.r.<.;.;.! R R $.v W.W.W.W.m #.R R ! ;.;.,.r.f.h.F W.W.",
"W.  $.-.+.+.+.+.$..._ _ $.@ W.W.W.W.@ .._ _ ..$.$.$.+.+.-.$.  W.",
"W.  -.#.{ ......{ ;.;.+.-.+ W.W.W.W.+ -.$.;.;.{ { { { { +.-.  W.",
"W.W.m M.p.<.{ ! _ 9.1.1.<.s W.W.W.W.s <.1.6.9.! _ { <.f.M.N W.W.",
"W.W.W.    f { U U ;.f.e.e.e.n # # l e.e.r.f.;.U U _ s     W.W.W.",
"W.W.W.W.W.: _ U U R l.k.s.i.s.f.s.s.f.i.h.l.R U U _ 3 W.W.W.W.W.",
"W.W.W.W.W.. ^ R D D +.J.Z.l.l.l.b.x.M.N.J.+.D D R R . W.W.W.W.W.",
"W.W.W.W.W.W.7 U Z Z Z _ Z.K.J.J.G.G.K.S._ Z F Z R 7 W.W.W.W.W.W.",
"W.W.W.W.W.W.* F N m N n C <.M.E.R.h.<.Z m m N m G ; W.W.W.W.W.W.",
"W.W.W.W.W.% U F v n v n v v v n v n n l n v n l D J & W.W.W.W.W.",
"W.W.W.W.W.y s s Z R R Z l f s s l s f l Z R R Z c v r W.W.W.W.W.",
"W.W.W.W.W.% ( _ ' 2 0 #.{ F l p s l F | #.0 2 ' _ ! % W.W.W.W.W.",
"W.W.W.W.W.W.- ~ ; W.W.o 8 t G u u F t 8 o W.W.; U ; W.W.W.W.W.W.",
"W.W.W.W.W.W.W.W.W.W.W.W.W.  Z t t N   W.W.W.W.W.W.W.W.W.W.W.W.W.",
"W.W.W.W.W.W.W.W.W.W.W.W.W.  v u u s   W.W.W.W.W.W.W.W.W.W.W.W.W.",
"W.W.W.W.W.W.W.W.W.W.W.W.W.  e q.q.r   W.W.W.W.W.W.W.W.W.W.W.W.W.",
"W.W.W.W.W.W.W.W.W.W.W.W.W.W.        W.W.W.W.W.W.W.W.W.W.W.W.W.W.",
"W.W.W.W.W.W.W.W.W.W.W.W.W.W.W.W.W.W.W.W.W.W.W.W.W.W.W.W.W.W.W.W."
};
