/* XPM */
static char *_diradd[] = {
/* columns rows colors chars-per-pixel */
"32 32 90 1 ",
"  c #3E5300",
". c #355215",
"X c #345216",
"o c #425600",
"O c #435800",
"+ c #44602D",
"@ c #44612D",
"# c #496A3C",
"$ c #4F6D3F",
"% c #002954",
"& c #002B55",
"* c #003163",
"= c #003568",
"- c #003669",
"; c #003769",
": c #003A6E",
"> c #003B70",
", c #003B73",
"< c #014473",
"1 c #385A78",
"2 c #395A79",
"3 c #3B5D7D",
"4 c #3B5E7D",
"5 c #4F7247",
"6 c #507348",
"7 c #517348",
"8 c #527448",
"9 c #547549",
"0 c #557649",
"q c #577649",
"w c #587749",
"e c #42685E",
"r c #A0D90A",
"t c #A5DB0C",
"y c #AFDE0D",
"u c #B3E00D",
"i c #C1E410",
"p c #C9E812",
"a c #D7ED15",
"s c #DBEE17",
"d c #356590",
"f c #3A6B99",
"g c #3C78A5",
"h c #466E90",
"j c #477095",
"k c #407399",
"l c #517FAA",
"z c #629291",
"x c #6E9792",
"c c #5382AC",
"v c #5483AE",
"b c #5785AF",
"n c #5989B6",
"m c #558FB8",
"M c #5D90BF",
"N c #5C94BD",
"B c #5E95BE",
"V c #5797C5",
"C c #5E92C1",
"Z c #5F93C1",
"A c #5F93C2",
"S c #5F99C0",
"D c #6296C5",
"F c #6398C5",
"G c #649AC5",
"H c #68A0CA",
"J c #69A2CA",
"K c #6CA4CC",
"L c #6FAACE",
"P c #70ACCF",
"I c #71ADD1",
"U c #69B1E3",
"Y c #6EB4E5",
"T c #73B7E6",
"R c #77B9E7",
"E c #7CBCE8",
"W c #81A7C1",
"Q c #80BEE9",
"! c #85C1EA",
"~ c #8AC3EA",
"^ c #8EC6EB",
"/ c #94C2E0",
"( c #93C8EC",
") c #96CBED",
"_ c #9BCDEE",
"` c #9FD0EE",
"' c #A3D2EF",
"] c #A6D4F0",
"[ c #AAD6F1",
"{ c None",
/* pixels */
"{{{{{{{{{{{{{{{{{{{{{{{{{{{{{{{{",
"{{{{{{{{{{{{{{{{{{{{{{{{{{{{{{{{",
"{{{{{{{{{{{{{{{{{{{{{{{{{{{{{{{{",
"{{{,,,,,,,,,,{{{{{{{{{{{{{{{{{{{",
"{{BLIIIIPIIIIm{{{{{{{{{{{{{{{{{{",
"{,ADAAAAAAAAFHg,,,,,,,,,,,,{{{{{",
"{,AAMAAAMAAAAFJPPPPPPPPPPPIB{{{{",
"{,Anccccccccccccccccccccccvv,{{{",
"{,nj421111112111111211122124,{{{",
"{,v4W[[[[[[[[[[[[[[[[[[[[[[[[/{{",
"{,c2]]]'[''[]]]''[]]']]]']]]]],{",
"{,c2'''''''''''''''''''''''''',{",
"{,c1````````````````````````'`,{",
"{,c1__________________________,{",
"{,c1)))))))))))))))))))))))))),{",
"{,c2((((((((((((((((((((((((((,{",
"{,c1^^^^^^^^^^^^^^^^^^^^^^(^^^,{",
"{,c1~~~~~~~~~~~~~~~~~~xwwwwx~~,{",
"{,c1!!!!!!!!!!!!!!!!!!0ssasw!!,{",
"{,c2QQQQQQQQQQQQ!EE!QQ0iuuuwQQ,{",
"{,c2EEEEEEEEEEEEEEEEEE0urru8EE,{",
"{,c1RRRRRRRRRRRRRRz8888urru788.{",
"{,c1TTTTTTTTTTTTTT6saapyrrypassO",
"{,c1YYYYYYYYYYYYYY5iuuytrrtyuuiO",
"{,l2UUUUUUUUUUUUUU7urrrrrrrrrruo",
"{{f4VVVVVVVVVVVVVV#urrrrrrrrrruO",
"{{<hkkkkkkkkkkkkkke++++trrt+@@.{",
"{{%dGKKKKKKKKKKKKKKKKH5yrru$KS:{",
"{{{%;;;;;;;;;;;;=;;;;;.urru.;*{{",
"{{{{{{{{{{{{{{{{{{{{{{ urru {{{{",
"{{{{{{{{{{{{{{{{{{{{{{{oooo{{{{{",
"{{{{{{{{{{{{{{{{{{{{{{{{{{{{{{{{"
};
