/* XPM */
static char *_people[] = {
/* columns rows colors chars-per-pixel */
"32 32 109 2 ",
"   c black",
".  c #010101",
"X  c #020202",
"o  c #040404",
"O  c gray2",
"+  c #060606",
"@  c #070707",
"#  c #090909",
"$  c gray4",
"%  c gray5",
"&  c gray6",
"*  c #161616",
"=  c #181818",
"-  c #191919",
";  c #1B1B1B",
":  c gray11",
">  c #1D1D1D",
",  c #1E1E1E",
"<  c gray12",
"1  c #202020",
"2  c gray13",
"3  c #222222",
"4  c #232323",
"5  c gray14",
"6  c #252525",
"7  c gray15",
"8  c #272727",
"9  c #282828",
"0  c gray16",
"q  c #2A2A2A",
"w  c gray17",
"e  c #2C2C2C",
"r  c #2D2D2D",
"t  c gray18",
"y  c gray19",
"u  c #313131",
"i  c #323232",
"p  c #343434",
"a  c #353535",
"s  c gray21",
"d  c #373737",
"f  c gray22",
"g  c #393939",
"h  c #3A3A3A",
"j  c gray23",
"k  c #3C3C3C",
"l  c #3E3E3E",
"z  c #3F3F3F",
"x  c gray25",
"c  c #414141",
"v  c gray26",
"b  c #444444",
"n  c gray27",
"m  c #464646",
"M  c gray28",
"N  c #484848",
"B  c #494949",
"V  c gray29",
"C  c #4C4C4C",
"Z  c gray30",
"A  c #4E4E4E",
"S  c gray31",
"D  c #505050",
"F  c #515151",
"G  c gray32",
"H  c gray33",
"J  c #555555",
"K  c #565656",
"L  c gray34",
"P  c #585858",
"I  c gray35",
"U  c #5A5A5A",
"Y  c #5B5B5B",
"T  c gray36",
"R  c #5D5D5D",
"E  c gray37",
"W  c #606060",
"Q  c gray38",
"!  c #626262",
"~  c gray39",
"^  c #646464",
"/  c #656565",
"(  c gray40",
")  c #676767",
"_  c DimGray",
"`  c #6A6A6A",
"'  c gray42",
"]  c #6D6D6D",
"[  c gray43",
"{  c #6F6F6F",
"}  c gray44",
"|  c #717171",
" . c #727272",
".. c #747474",
"X. c gray46",
"o. c #767676",
"O. c #777777",
"+. c gray48",
"@. c #7B7B7B",
"#. c #7C7C7C",
"$. c gray49",
"%. c #7E7E7E",
"&. c gray50",
"*. c #808080",
"=. c #848484",
"-. c gray54",
";. c gray55",
":. c #959595",
">. c None",
/* pixels */
">.>.>.>.>.>.>.>.>.>.>.>.>.>.>.>.>.>.>.>.>.>.>.>.>.>.>.>.>.>.>.>.",
">.>.>.>.>.>.>.>.>.>.>.>.>.>.>.>.>.>.>.>.>.>.>.>.>.>.>.>.>.>.>.>.",
">.>.>.>.>.>.>.>.>.>.>.>.>.>.>.>.>.>.>.>.>.>.>.>.>.>.>.>.>.>.>.>.",
">.>.>.>.>.>.>.>.>.>.>.>.>.>.>.>.>.>.>.>.>.>.>.>.>.>.>.>.>.>.>.>.",
">.>.>.>.>.>.>.>.>.>.>.>.>.>.>.>.>.>.>.>.>.>.>.>.>.>.>.>.>.>.>.>.",
">.>.>.>.>.>.>.>.>.>.>.>.>.>.>.>.>.>.>.>.>.>.>.>.>.>.>.>.>.>.>.>.",
">.>.>.>.>.>.>.>.      >.>.>.>.>.>.>.>.>.>.>.>.>.>.>.>.>.>.>.>.>.",
">.>.>.>.>.>.  l &.:. .e   >.>.>.>.>.>.>.>.>.>.>.>.>.>.>.>.>.>.>.",
">.>.>.>.>.3 W O.I A W &.' + >.>.>.>.        >.>.>.>.>.>.>.>.>.>.",
">.>.>.>.>.h T m h h h m ' h >.>.  - I -.-.H $ >.>.>.>.>.>.>.>.>.",
">.>.>.>.>.e c h l l l l ^ m >.>.A &.' A F [ =.s >.>.>.>.>.>.>.>.",
">.>.>.>.>.q h l l l c m ^ l >.q I V h h h V +.^ * >.>.>.>.>.>.>.",
">.>.>.>.>.q h l l c m F ^ l >.3 c h h l l I ^ T q >.>.>.>.>.>.>.",
">.>.>.>.>.8 l l c m m W W l >.3 h h l l c ^ ^ H 3 >.>.>.>.>.>.>.",
">.>.>.>.>.e h l c c V W W h >.8 h l c c F ^ ^ H 3 >.>.>.>.>.>.>.",
">.>.>.>.>.3 e l l c H T H s >.: h l c c W ^ ^ F q >.>.>.>.>.>.>.",
">.>.>.>.>.>.3 s l c I H c >.>.8 h l c V ^ W W A 8 >.>.>.>.>.>.>.",
">.>.>.>.>.>.: e h m F A i >.>.3 s l c H W T T A 8 >.>.>.>.>.>.>.",
">.>.>.>.>.>.$ i s V A m 3 >.>.>.q s c I T T H s >.>.>.>.>.>.>.>.",
">.>.>.>.>.>.q A s m V H i   >.>.- e V I H H V 3 >.>.>.>.>.>.>.>.",
">.>.>.    h ^ V l c m H [ H     >.q V F F A h 8 >.>.>.>.>.>.>.>.",
">.>.& I +.' V q h h l h A ' &.W & e m A A V i   >.>.>.>.>.>.>.>.",
">.s O.T l e q e s h s s s h h 8 l ^ F m m A W h   >.>.>.>.>.>.>.",
"s W l 8 3 3 8 e e e e q -   * A ^ F c m c c H  .^ -   >.>.>.>.>.",
"- e : : 3 3 3 q 8 - + + l  .&.W V h h h h h h m ^ &. .m $   >.>.",
"- : : 3 : 3 3 3 $ 8 W &.[ A i 8 i s s s s s s s s h F  .=.^ e   ",
"+               i  .H i 3 3 3 8 e i i i i i i i e e q q h A [ c ",
">.>.>.>.>.>.>.>.3 h : : 3 3 3 8 q q q e e e q q q q q 8 8 3 i - ",
">.>.>.>.>.>.>.>.- : : 3 : : 3 8 8 8 8 8 q q 8 8 8 8 3 8 3 : : - ",
">.>.>.>.>.>.>.  $                                             + ",
">.>.>.>.>.>.>.                                                >.",
">.>.>.>.>.>.>.>.>.>.>.>.>.>.>.>.>.>.>.>.>.>.>.>.>.>.>.>.>.>.>.>."
};
