/* XPM */
static char *_tags[] = {
/* columns rows colors chars-per-pixel */
"32 32 227 2 ",
"   c #560700",
".  c #630700",
"X  c #690A00",
"o  c #6C0A00",
"O  c #770900",
"+  c #771E19",
"@  c #810C00",
"#  c #820C00",
"$  c #830C00",
"%  c #820D00",
"&  c #830D00",
"*  c #860E00",
"=  c #891001",
"-  c #8C1608",
";  c #921E14",
":  c #931E14",
">  c #931F16",
",  c #941F16",
"<  c #922017",
"1  c #942017",
"2  c #952117",
"3  c #952119",
"4  c #A1332D",
"5  c #A2342E",
"6  c #C83227",
"7  c #C93227",
"8  c #CA342A",
"9  c #CB342A",
"0  c #CC362C",
"q  c #CD362C",
"w  c #CE392F",
"e  c #CF3A30",
"r  c #D03C33",
"t  c #D23D34",
"y  c #D33F37",
"u  c #B8433D",
"i  c #B8443E",
"p  c #CF443D",
"a  c #CE453E",
"s  c #D44037",
"d  c #D44239",
"f  c #D6433A",
"g  c #D1473F",
"h  c #D7453D",
"j  c #D9463E",
"k  c #965A58",
"l  c #A54D49",
"z  c #BD4843",
"x  c #BF4F4A",
"c  c #AB504D",
"v  c #AB524F",
"b  c #BB5450",
"n  c #BE5A57",
"m  c #BE5B58",
"M  c #BC6F6D",
"N  c #A5706E",
"B  c #AA7776",
"V  c #C74E49",
"C  c #D24841",
"Z  c #D04A43",
"A  c #D14A43",
"S  c #D34A43",
"D  c #D34B44",
"F  c #D34D46",
"G  c #D64D46",
"H  c #D94840",
"J  c #DB4A42",
"K  c #DC4B43",
"L  c #DE4D45",
"P  c #DE4E46",
"I  c #D54F49",
"U  c #D84F49",
"Y  c #C0514C",
"T  c #C5524E",
"R  c #D8514B",
"E  c #D9514B",
"W  c #DA554F",
"Q  c #DC554F",
"!  c #D25550",
"~  c #D35550",
"^  c #DA5650",
"/  c #DE5751",
"(  c #D25954",
")  c #D75C56",
"_  c #DC5852",
"`  c #DE5852",
"'  c #E1514A",
"]  c #E1524B",
"[  c #E3544D",
"{  c #E3554E",
"}  c #E65751",
"|  c #E65852",
" . c #E05A54",
".. c #E25D57",
"X. c #E85B54",
"o. c #E85C55",
"O. c #EB5E57",
"+. c #E35E59",
"@. c #EB5F59",
"#. c #C1615D",
"$. c #C4635F",
"%. c #E4605B",
"&. c #E5615C",
"*. c #E7635E",
"=. c #ED615B",
"-. c #ED625C",
";. c #EE635D",
":. c #EF635D",
">. c #EF645E",
",. c #CB6C69",
"<. c #D26966",
"1. c #D56E6B",
"2. c #D66F6C",
"3. c #D86F6B",
"4. c #D96F6C",
"5. c #D7706D",
"6. c #D7716E",
"7. c #DA706D",
"8. c #DB726E",
"9. c #DC736F",
"0. c #CE7D7A",
"q. c #D57370",
"w. c #D77673",
"e. c #D87370",
"r. c #DD7571",
"t. c #DE7571",
"y. c #DE7572",
"u. c #D97774",
"i. c #DF7774",
"p. c #D97875",
"a. c #D07C79",
"s. c #DE7B78",
"d. c #DD7E7B",
"f. c #E66661",
"g. c #E96761",
"h. c #EC6761",
"j. c #EC6963",
"k. c #EE6C66",
"l. c #F06660",
"z. c #F16660",
"x. c #F16761",
"c. c #F16862",
"v. c #F46963",
"b. c #F06B65",
"n. c #F46A64",
"m. c #F56B65",
"M. c #F56C66",
"N. c #F76D67",
"B. c #F06F6A",
"V. c #F76E69",
"C. c #F96F6A",
"Z. c #F1706B",
"A. c #F4736E",
"S. c #F9706B",
"D. c #FA716C",
"F. c #FA736E",
"G. c #E97571",
"H. c #E07874",
"J. c #E17875",
"K. c #E17976",
"L. c #E27A77",
"P. c #E17C79",
"I. c #E47C79",
"U. c #E57E7B",
"Y. c #E67E7B",
"T. c #EA7D79",
"R. c #F17571",
"E. c #F57671",
"W. c #F77772",
"Q. c #F87974",
"!. c #FB7974",
"~. c #F97A76",
"^. c #E2827F",
"/. c #E4807D",
"(. c #E6807D",
"). c #E8817E",
"_. c #F8827E",
"`. c #FC807C",
"'. c #FC837F",
"]. c #D18482",
"[. c #D08684",
"{. c #D18987",
"}. c #E98380",
"|. c #EA8481",
" X c #EB8582",
".X c #EC8683",
"XX c #EC8784",
"oX c #ED8885",
"OX c #EE8986",
"+X c #EF8C89",
"@X c #F88480",
"#X c #F58885",
"$X c #FA8985",
"%X c #FD8884",
"&X c #FD8A87",
"*X c #F88D8A",
"=X c #FD8C89",
"-X c #F1918E",
";X c #FD928E",
":X c #FC938F",
">X c #FD9895",
",X c #FE9A97",
"<X c #E1B2B0",
"1X c #E3B8B7",
"2X c #E6BEBD",
"3X c gray77",
"4X c #D6C2C1",
"5X c #D8D8D8",
"6X c gray86",
"7X c #ECCDCC",
"8X c #E1D6D5",
"9X c #E7D7D6",
"0X c #E9D3D2",
"qX c #EED4D4",
"wX c #E4E4E4",
"eX c #E9E9E9",
"rX c #EEEEEE",
"tX c #EFEFEF",
"yX c gray97",
"uX c #F9F0F0",
"iX c #FAF2F2",
"pX c #FAF4F4",
"aX c #F9F9F9",
"sX c gray98",
"dX c #FEFDFD",
"fX c white",
"gX c None",
/* pixels */
"gXgXgXgXgXgXgXgXgXgXgXgXgXgXgXgXgXgXgXgXgXgXgXgXgXgXgXgXgXgXgXgX",
"gXgXgXgXgXgXgXgXgXgXgXgXgXgXgXgXgXgXgXgXgXgXgXgXgX% % gXgXgXgXgX",
"gXgXgXgXgXgXgXgXgXgXgXgXgXgXgXgXgXgXgXgX% % * 4 m u.-X$.* gXgXgX",
"gXgXgXgXgXgXgXgXgXgXgXgXgXgXgXgXgXgXgX, ,.(.;X&X&X&X;X,X$.% gXgX",
"gXgXgXgXgXgXgXgXgXgXgXgXgXgXgXgXgXgX3 +X'.!.F.F.~.v X v >X$.gXgX",
"gXgXgXgXgXgXgXgXgXgXgXgXgXgXgXgXgX, oXQ.S.C.C.C.T.k fX+ *X-X% gX",
"gXgXgXgXgXgXgXgXgXgXgXgXgXgXgXgX, oXQ.V.N.N.N.N.<.9X4Xl $Xw.# gX",
"gXgXgXgXgXgXgXgXgXgXgXgXgXgXgX1 XXW.M.m.m.m.m.h.a.fX[.G._.n gXgX",
"gXgXgXgXgXgXgXgXgXgXgXgXgXgX> .XW.v.v.v.v.v.v.) 2X7X( v.@X4 gXgX",
"gXgXgXgXgXgXgXgXgXgXgXgXgX1 |.A.c.z.x.>.>.x.>.Y iX].+.x.#X= gXgX",
"gXgXgXgXgXgXgXgXgXgXgXgX1 |.Z.>.:.:.>.:.>.>.+.0.iXx :.k.P.% gXgX",
"gXgXgXgXgXgXgXgXgXgXgX> ).B.:.=.=.=.=.=.=.=.~ <X1X! :.R.,.% gXgX",
"gXgXgXgXgXgXgXgXgXgX, ).k.@.o.@.O.O.O.O.o.=.V qX{._ k.|.3 gXgXgX",
"gXgXgXgXgXgXgXgXgX> (.j.o.X.X.X.X.X.X.X.o.| z uX$.f.).1 gXgXgXgX",
"gXgXgXgXgXgXgXgX> U.g.} } } } } } } } } } } u fXb U.1 gXgXgXgXgX",
"gXgXgXgXgXgXgX> U.*.{ { [ [ [ [ [ [ [ { [ [ u pXM > gXgXgXgXgXgX",
"gXgXgXgXgXgX: U.&.' ' ' ' ' ' ' ' ' ' ' ' ' T 0XB o gXgXgXgXgXgX",
"gXgXgXgXgX: J...L L L L L L L L L L L L P +.w.N 8XgXgXgXgXgXgXgX",
"gXgXgXgX, J. .K J J J J J J J J J J J J  .J.1   aXgXgXgXgXgXgXgX",
"gXgXgX: J._ j j j j j j j j j j j j j  .J.1 gXgX6X6XgXgXgXgXgXgX",
"gXgX> t.Q h f f h f f f f f f f f h Q J.1 gXgXgXgXaXgXgXgXgXgXgX",
"gX> ^.W f s s s s s s s y y s s s E t.1 gXgXgXgXgXtXgXgXgXgXgXgX",
"gX- d.^ s t t t t y t t t t t y E t.1 gXgXgXgXgXgX3XwXgXgXgXgXgX",
"gXgX- e.E t e w w w w w w r r G 9.1 gXgXgXgXgXgXgXgXyXgXgXgXgXgX",
"gXgXgX- 6.I w q 0 0 0 0 0 w S 9., gXgXgXgXgXgXgXgXgXaXgXgXgXgXgX",
"gXgXgXgX- 6.F q 9 9 9 9 0 C 9., gXgXgXgXgXgXgXgXgXgXtXgXgXgXgXgX",
"gXgXgXgXgX- 6.F 9 7 7 9 g 4., gXgXgXgXgXgXgXgXgXgXgXeXgXgXgXgXgX",
"gXgXgXgXgXgX- 1.Z 6 7 a 3., gXgXgXgXgXgXgXgXgXgXgXgX6XgXgXgXgXgX",
"gXgXgXgXgXgXgX- 1.Z a 3.> gXgXgXgXgXgXgXgXgXgXgXgXgXgXgXgXgXgXgX",
"gXgXgXgXgXgXgXgX- p.s.> gXgXgXgXgXgXgXgXgXgXgXgXgXgXgXgXgXgXgXgX",
"gXgXgXgXgXgXgXgX. - > O gXgXgXgXgXgXgXgXgXgXgXgXgXgXgXgXgXgXgXgX",
"gXgXgXgXgXgXgXgXgXgXgXgXgXgXgXgXgXgXgXgXgXgXgXgXgXgXgXgXgXgXgXgX"
};
